<svg width="44" height="39" viewBox="0 0 44 39" fill="none" xmlns="http://www.w3.org/2000/svg">
<path d="M21.5668 23.5015C23.7872 23.5015 25.5873 21.7015 25.5873 19.481C25.5873 17.2606 23.7872 15.4606 21.5668 15.4606C19.3464 15.4606 17.5464 17.2606 17.5464 19.481C17.5464 21.7015 19.3464 23.5015 21.5668 23.5015Z" fill="#00D8FF"/>
<path fill-rule="evenodd" clip-rule="evenodd" d="M21.8622 11.0066C28.7171 11.0532 36.196 11.5533 41.3297 16.1313C41.4806 16.266 41.626 16.4061 41.7679 16.5506C42.979 17.7851 43.612 19.7783 42.6343 21.4186C40.6285 24.7864 36.143 26.2552 31.8002 27.1593C25.3054 28.5114 18.5142 28.5222 12.022 27.3317C8.2862 26.6458 4.46596 25.4436 1.81109 22.9288C0.777698 21.9501 -0.105761 20.6627 0.032504 19.2297C0.25696 16.9115 2.48087 15.4239 4.35283 14.4165C9.55213 11.6189 15.8872 10.9931 21.8622 11.0066ZM21.3648 12.0597C14.8789 12.1037 7.85884 12.5176 2.85077 16.6646C2.6757 16.8092 2.50691 16.9609 2.3444 17.1198C2.23936 17.2222 2.1379 17.329 2.04004 17.4386C1.16107 18.4262 0.858502 20.0126 1.68809 21.1987C2.52307 22.3919 3.7908 23.2529 5.09623 23.955C9.9786 26.5802 15.748 27.0462 21.3729 27.0659C27.0678 27.0866 32.9405 26.5676 37.971 23.9667C39.9749 22.9297 42.2302 21.407 42.1503 19.4461C42.0767 17.6469 40.3224 16.5354 39.0088 15.7417C38.6533 15.5271 38.2879 15.3287 37.9171 15.1419C32.9234 12.6397 27.0714 12.0471 21.3648 12.0597Z" fill="#00D8FF"/>
<path fill-rule="evenodd" clip-rule="evenodd" d="M30.6474 0.400567C33.155 0.464312 34.4542 3.47921 34.6257 5.70581C34.6598 6.14844 34.6724 6.59286 34.667 7.03728C34.6616 7.51852 34.6355 7.99975 34.5934 8.47919C34.0645 14.4156 31.354 20.0692 28.1622 25.29C25.0405 30.3969 21.2337 35.4893 16.0551 37.856C14.3429 38.6389 12.3067 39.1219 10.7911 38.2483C8.71357 37.0515 8.48642 34.2521 8.52502 32.1288C8.5349 31.6071 8.56902 31.0855 8.62289 30.5657C9.42105 22.8803 13.3167 15.5998 18.1919 9.32763C21.0362 5.6681 24.4201 2.0382 28.6354 0.723783C29.2989 0.516386 29.8259 0.390691 30.6474 0.400567ZM30.5271 1.45282C27.5831 1.4995 24.9399 3.68122 22.5993 5.94822C16.4456 11.9071 11.9107 19.8322 10.0863 28.1433C9.94538 28.7871 9.82687 29.4353 9.73978 30.088C9.67244 30.5935 9.62306 31.1017 9.59703 31.6116C9.57638 32.0174 9.56919 32.4242 9.58176 32.8309C9.59074 33.1487 9.61139 33.4665 9.64641 33.7826C9.67244 34.0241 9.70746 34.2647 9.75145 34.5035C9.78467 34.6804 9.82328 34.8564 9.86817 35.0314C9.90498 35.1733 9.94628 35.3143 9.99297 35.4543C10.3602 36.5613 11.3065 37.619 12.5769 37.654C15.5406 37.7348 18.3311 35.5737 20.7435 33.225C24.9786 29.1031 28.1344 23.9236 30.5998 18.4792C32.5894 14.0834 34.4093 9.30519 33.393 4.46681C33.3544 4.28366 33.3095 4.1023 33.2583 3.92273C33.2161 3.77639 33.1685 3.63184 33.1164 3.48908C32.7214 2.41259 31.7921 1.45012 30.5271 1.45282Z" fill="#00D8FF"/>
<path fill-rule="evenodd" clip-rule="evenodd" d="M12.6855 0.440021C15.8854 0.501971 18.7593 2.67381 21.3109 5.10601C25.9671 9.54396 29.4012 15.1895 32.0067 21.1313C34.025 25.7344 35.8817 30.9014 34.2315 35.7586C33.7117 37.2894 32.3964 38.69 30.6429 38.7259C27.4278 38.7906 24.4479 36.4526 21.8622 33.936C15.3754 27.6208 10.5595 19.2836 8.90929 10.4418C8.79078 9.80971 8.69651 9.17226 8.63186 8.53211C8.57889 8.00958 8.54567 7.48435 8.53669 6.95912C8.52951 6.53535 8.53849 6.11158 8.56812 5.6896C8.58787 5.40768 8.6166 5.12756 8.65521 4.84834C8.69202 4.58617 8.7387 4.32491 8.79706 4.06633C8.83567 3.89485 8.87876 3.72516 8.92815 3.55637C9.41207 1.90168 10.6708 0.427452 12.6855 0.440021ZM12.5643 1.49317C10.6906 1.53447 9.83315 3.74401 9.66077 5.29456C9.62575 5.61239 9.60421 5.93291 9.59433 6.25343C9.58176 6.66284 9.58715 7.07315 9.6078 7.48255C9.90228 13.4073 12.5509 19.1354 15.7471 24.3805C18.7566 29.3185 22.391 34.2368 27.3901 36.7651C28.8338 37.495 30.5882 38.0687 31.8352 37.3792C33.3992 36.5137 33.5914 34.4514 33.6749 32.9143C33.6973 32.4959 33.7 32.0758 33.6865 31.6565C33.6704 31.1303 33.6291 30.6051 33.5671 30.0826C32.9907 25.2011 30.8288 20.5818 28.3454 16.2166C25.2551 10.7865 21.469 5.37446 16.1107 2.54721C15.001 1.96183 13.7997 1.48329 12.5643 1.49317Z" fill="#00D8FF"/>
</svg>
