<svg width="38" height="38" viewBox="0 0 38 38" fill="none" xmlns="http://www.w3.org/2000/svg">
<path d="M0.794418 20.9179C-0.264806 19.8587 -0.264806 18.1414 0.794418 17.0821L17.0821 0.794418C18.1414 -0.264806 19.8587 -0.264806 20.9179 0.794418L37.2056 17.0821C38.2648 18.1414 38.2648 19.8587 37.2056 20.9179L20.9179 37.2056C19.8587 38.2648 18.1414 38.2648 17.0821 37.2056L0.794418 20.9179Z" fill="#EE513B"/>
<path d="M13.7735 4.15491L12.1242 5.8043L16.3841 10.0643C16.2118 10.434 16.1155 10.8463 16.1155 11.2811C16.1155 12.5156 16.8911 13.5688 17.9816 13.9802V24.4012C16.8911 24.8125 16.1155 25.8658 16.1155 27.1003C16.1155 28.693 17.4067 29.9842 18.9995 29.9842C20.5922 29.9842 21.8834 28.693 21.8834 27.1003C21.8834 25.9811 21.2459 25.0108 20.3143 24.5328V13.9944L24.3864 18.0666C24.2224 18.4288 24.1312 18.8309 24.1312 19.2543C24.1312 20.8471 25.4224 22.1383 27.0152 22.1383C28.6079 22.1383 29.8991 20.8471 29.8991 19.2543C29.8991 17.6616 28.6079 16.3704 27.0152 16.3704C26.7056 16.3704 26.4076 16.4191 26.128 16.5094L21.7546 12.136C21.8383 11.8659 21.8834 11.5787 21.8834 11.2811C21.8834 9.68834 20.5922 8.39715 18.9995 8.39715C18.7018 8.39715 18.4148 8.44225 18.1446 8.52597L13.7735 4.15491Z" fill="white"/>
</svg>
