<svg width="40" height="38" viewBox="0 0 40 38" fill="none" xmlns="http://www.w3.org/2000/svg">
<path d="M33.173 0H5.85405C2.62095 0 0 2.55198 0 5.7V32.3C0 35.448 2.62095 38 5.85405 38H33.173C36.4061 38 39.027 35.448 39.027 32.3V5.7C39.027 2.55198 36.4061 0 33.173 0Z" fill="#F7DF1E"/>
<path d="M24.6968 27.4608C25.459 28.7225 26.5262 29.6132 28.2794 29.6132C29.8038 29.6132 30.7948 28.871 30.7948 27.8319C30.7948 26.6444 29.8038 26.1991 28.1269 25.4569L27.2122 25.0858C24.5443 23.9725 22.7912 22.6366 22.7912 19.7421C22.7912 17.0702 24.8492 14.9921 28.1269 14.9921C30.4899 14.9921 32.1668 15.8085 33.3102 17.8866L30.4899 19.6678C29.8801 18.5546 29.194 18.1093 28.1269 18.1093C27.0598 18.1093 26.3737 18.7772 26.3737 19.6678C26.3737 20.7069 27.0598 21.1522 28.6605 21.8202L29.5752 22.1913C32.7004 23.5272 34.4535 24.7889 34.4535 27.8319C34.4535 31.0233 31.8619 32.8046 28.3556 32.8046C24.9255 32.8046 22.715 31.246 21.6478 29.1678L24.6968 27.4608ZM11.7386 27.7577C12.3484 28.7225 12.8057 29.6132 14.1016 29.6132C15.3212 29.6132 16.0834 29.1678 16.0834 27.3866V15.0663H19.7422V27.2382C19.7422 30.9491 17.5317 32.5819 14.254 32.5819C11.2813 32.5819 9.60431 31.0975 8.76584 29.3163L11.7386 27.7577Z" fill="black"/>
</svg>
