<svg width="44" height="43" viewBox="0 0 44 43" fill="none" xmlns="http://www.w3.org/2000/svg">
<g clip-path="url(#clip0_312_106)">
<path d="M37.6414 23.9922C36.1511 24 34.8558 24.3589 33.7713 24.8895C33.3733 24.1014 32.9754 23.3992 32.9052 22.8842C32.8272 22.2834 32.7335 21.9167 32.8272 21.1988C32.9208 20.481 33.3421 19.4588 33.3343 19.3808C33.3265 19.3028 33.2407 18.9361 32.3824 18.9283C31.5241 18.9205 30.7829 19.0921 30.6971 19.3184C30.6112 19.5447 30.4474 20.0596 30.3381 20.5902C30.1899 21.3705 28.6216 24.156 27.7243 25.6151C27.4356 25.0455 27.1859 24.5461 27.1313 24.1482C27.0532 23.5474 26.9596 23.1807 27.0532 22.4628C27.1469 21.745 27.5682 20.7229 27.5604 20.6448C27.5526 20.5668 27.4668 20.2001 26.6085 20.1923C25.7502 20.1845 25.0089 20.3561 24.9231 20.5824C24.8373 20.8087 24.7437 21.3393 24.5642 21.8542C24.3847 22.3692 22.3014 27.0196 21.7553 28.2212C21.4744 28.8376 21.2325 29.3291 21.0608 29.6647C21.0608 29.6647 21.053 29.6881 21.0296 29.7271C20.8814 30.0158 20.7955 30.1718 20.7955 30.1718C20.7955 30.1718 20.7955 30.1718 20.7955 30.1796C20.6785 30.3903 20.5536 30.5854 20.4912 30.5854C20.4444 30.5854 20.3586 30.0236 20.5068 29.2589C20.8189 27.6438 21.5602 25.1313 21.5524 25.0455C21.5524 24.9987 21.6928 24.5618 21.0686 24.3355C20.46 24.1092 20.2415 24.4837 20.1869 24.4837C20.1323 24.4837 20.0933 24.6164 20.0933 24.6164C20.0933 24.6164 20.7721 21.7918 18.7981 21.7918C17.5652 21.7918 15.8643 23.1417 15.0216 24.3589C14.491 24.6476 13.3596 25.264 12.1502 25.9272C11.6899 26.1847 11.2139 26.4422 10.7692 26.6841C10.738 26.6529 10.7067 26.6138 10.6755 26.5826C8.28793 24.0312 3.87165 22.2288 4.05892 18.8034C4.12914 17.555 4.55828 14.2779 12.5404 10.2986C19.1102 7.06048 24.3379 7.95778 25.243 9.94745C26.5383 12.7876 22.4419 18.0622 15.6536 18.8268C13.0631 19.1155 11.7055 18.1168 11.3622 17.7423C11.0032 17.3521 10.9486 17.3287 10.816 17.4068C10.5975 17.5238 10.738 17.8749 10.816 18.0778C11.0189 18.6084 11.8537 19.5447 13.266 20.005C14.5144 20.4108 17.5496 20.637 21.2247 19.217C25.3367 17.6252 28.5513 13.2011 27.6072 9.4949C26.6631 5.73404 20.421 4.49342 14.5144 6.59233C11.0032 7.84074 7.19557 9.807 4.45685 12.3663C1.20316 15.4093 0.688186 18.0544 0.898856 19.1623C1.65571 23.0949 7.07853 25.6541 9.24766 27.5502C9.13842 27.6126 9.03699 27.6672 8.95116 27.714C7.86659 28.2524 3.73121 30.4137 2.70126 32.6999C1.53087 35.2903 2.88852 37.1474 3.78582 37.3971C6.57136 38.1695 9.43492 36.7806 10.972 34.4867C12.5092 32.1927 12.3219 29.2121 11.6118 27.8466C11.604 27.831 11.5962 27.8154 11.5806 27.7998C11.8615 27.636 12.1502 27.4643 12.4311 27.3005C12.9851 26.9728 13.5313 26.6685 13.9994 26.4188C13.7342 27.1444 13.5391 28.0105 13.4455 29.2589C13.3284 30.7258 13.9292 32.6297 14.7173 33.3787C15.0684 33.7064 15.4819 33.7142 15.7472 33.7142C16.6679 33.7142 17.0815 32.9496 17.5418 32.0445C18.1036 30.9365 18.6108 29.6491 18.6108 29.6491C18.6108 29.6491 17.9788 33.129 19.6954 33.129C20.3196 33.129 20.9516 32.3175 21.2325 31.904V31.9118C21.2325 31.9118 21.2481 31.8884 21.2793 31.8338C21.3417 31.7324 21.3807 31.6699 21.3807 31.6699V31.6543C21.6304 31.2174 22.1922 30.2264 23.0271 28.5801C24.1038 26.4578 25.1416 23.8049 25.1416 23.8049C25.1416 23.8049 25.2352 24.4525 25.5551 25.5293C25.7424 26.1613 26.1325 26.8557 26.4446 27.5267C26.1949 27.8779 26.0389 28.0729 26.0389 28.0729C26.0389 28.0729 26.0389 28.0729 26.0467 28.0807C25.8438 28.346 25.6253 28.6347 25.3835 28.9156C24.533 29.9299 23.5186 31.0925 23.3782 31.428C23.2143 31.826 23.2534 32.1147 23.5655 32.3488C23.7917 32.5204 24.1975 32.5438 24.611 32.5204C25.3757 32.4658 25.914 32.2785 26.1793 32.1615C26.5929 32.0132 27.0766 31.787 27.5292 31.4515C28.3641 30.8351 28.8712 29.9534 28.8244 28.7908C28.801 28.151 28.5903 27.5111 28.3329 26.9103C28.4109 26.8011 28.4811 26.6919 28.5591 26.5826C29.8778 24.6554 30.8999 22.5409 30.8999 22.5409C30.8999 22.5409 30.9935 23.1885 31.3135 24.2653C31.4695 24.8114 31.7894 25.4044 32.0703 25.9818C30.8297 26.9884 30.065 28.1588 29.7919 28.9234C29.3004 30.3435 29.6827 30.9833 30.4084 31.1316C30.7361 31.2018 31.2042 31.0457 31.5475 30.8975C31.9845 30.757 32.4995 30.5151 32.991 30.1562C33.8259 29.5398 34.6296 28.6815 34.5828 27.5189C34.5593 26.9884 34.4189 26.4656 34.2238 25.9584C35.2772 25.5215 36.6348 25.2796 38.367 25.4825C42.0811 25.9194 42.8145 28.2368 42.6741 29.2121C42.5336 30.1874 41.7534 30.718 41.4959 30.8819C41.2384 31.0457 41.1526 31.1003 41.176 31.2174C41.2072 31.389 41.332 31.3812 41.5505 31.35C41.8548 31.2954 43.5011 30.562 43.5714 28.7674C43.6884 26.4734 41.5037 23.9688 37.6414 23.9922ZM8.99017 33.6518C7.75736 34.9938 6.04078 35.501 5.29953 35.0719C4.50367 34.6115 4.81577 32.6297 6.32948 31.2096C7.25019 30.3435 8.43618 29.5398 9.22425 29.0483C9.40371 28.939 9.669 28.783 9.9889 28.5879C10.0435 28.5567 10.0747 28.5411 10.0747 28.5411C10.1372 28.5021 10.1996 28.4631 10.262 28.424C10.816 30.4527 10.2854 32.2395 8.99017 33.6518ZM17.9632 27.5502C17.534 28.5957 16.6367 31.272 16.0906 31.1237C15.6224 30.9989 15.3337 28.9702 15.9969 26.965C16.3324 25.9584 17.0425 24.7568 17.456 24.2887C18.127 23.5396 18.8683 23.2899 19.0477 23.5942C19.274 23.9922 18.2285 26.8947 17.9632 27.5502ZM25.3679 31.0925C25.1884 31.1862 25.0167 31.2486 24.9387 31.2018C24.8841 31.1706 25.0167 31.0457 25.0167 31.0457C25.0167 31.0457 25.9453 30.047 26.312 29.5944C26.5227 29.3291 26.7723 29.017 27.0376 28.6659V28.7674C27.0376 29.9612 25.8828 30.7648 25.3679 31.0925ZM31.0794 29.7895C30.9467 29.6959 30.9701 29.3838 31.4149 28.4084C31.5865 28.0261 31.9923 27.3863 32.6867 26.7699C32.7647 27.0196 32.8194 27.2615 32.8116 27.4877C32.8038 28.9936 31.727 29.5554 31.0794 29.7895Z" fill="#CD6799"/>
</g>
<defs>
<clipPath id="clip0_312_106">
<rect width="42.8364" height="42.8364" fill="white" transform="translate(0.781818 0.145508)"/>
</clipPath>
</defs>
</svg>
