<svg width="37" height="36" viewBox="0 0 37 36" fill="none" xmlns="http://www.w3.org/2000/svg">
<path d="M35.0982 0H1.72545C0.772511 0 0 0.752181 0 1.68004V34.1746C0 35.1024 0.772511 35.8546 1.72545 35.8546H35.0982C36.0511 35.8546 36.8236 35.1024 36.8236 34.1746V1.68004C36.8236 0.752181 36.0511 0 35.0982 0Z" fill="#3178C6"/>
<path fill-rule="evenodd" clip-rule="evenodd" d="M21.3643 27.8627V31.7914C22.0974 32.1437 22.8787 32.3917 23.6842 32.5277C24.615 32.695 25.5599 32.7773 26.5064 32.7735C27.429 32.7778 28.3494 32.6872 29.2524 32.5034C30.0632 32.3438 30.8367 32.04 31.5342 31.607C32.1817 31.2 32.7153 30.643 33.0874 29.9859C33.7536 28.6251 33.8415 27.0633 33.332 25.6398C33.1169 25.1074 32.7966 24.6214 32.389 24.2094C31.9516 23.7713 31.4547 23.3935 30.9121 23.0864C30.2875 22.7302 29.6385 22.4162 28.9697 22.1465C28.4436 21.9339 27.9702 21.7273 27.5493 21.5267C27.1756 21.3525 26.8178 21.1473 26.4801 20.9134C26.2157 20.7328 25.9859 20.5083 25.8015 20.25C25.6422 20.0156 25.5593 19.7398 25.5635 19.4587C25.56 19.2 25.634 18.9459 25.7765 18.7275C25.9313 18.499 26.1378 18.308 26.3802 18.1692C26.6765 17.9994 26.9988 17.877 27.335 17.8068C27.7477 17.7175 28.1695 17.6746 28.5922 17.6788C28.9478 17.68 29.3028 17.7048 29.6549 17.753C30.0351 17.8031 30.4112 17.8788 30.7806 17.9797C31.1564 18.0811 31.5238 18.2095 31.8801 18.3638C32.2257 18.5139 32.5564 18.6948 32.8677 18.9042V15.2381C32.2195 14.9993 31.5473 14.8276 30.8622 14.7259C30.0348 14.6087 29.1994 14.5534 28.3634 14.5607C27.4495 14.5559 26.5383 14.6569 25.649 14.8616C24.8451 15.0405 24.0807 15.3584 23.3922 15.8002C22.7526 16.2151 22.2245 16.7732 21.8522 17.4278C21.4576 18.1547 21.2624 18.9684 21.2854 19.7903C21.2562 20.8772 21.6239 21.939 22.323 22.7868C23.1807 23.7268 24.2623 24.4474 25.4728 24.8855C26.0251 25.1075 26.5402 25.3248 27.018 25.5373C27.4492 25.7241 27.8635 25.9455 28.2569 26.1993C28.5741 26.4003 28.8528 26.6538 29.0802 26.9485C29.2801 27.2157 29.3862 27.5386 29.3826 27.8691C29.3844 28.1169 29.3191 28.3607 29.1933 28.576C29.0534 28.8074 28.8568 29.0014 28.6212 29.1407C28.3263 29.3158 28.0037 29.4421 27.6664 29.5146C27.2271 29.6103 26.7777 29.6554 26.3276 29.6491C25.4442 29.6475 24.5679 29.4958 23.7381 29.2009C22.8712 28.8963 22.0672 28.4431 21.3643 27.8627ZM14.5861 18.0821H19.8466V14.8462H5.17898V18.0821H10.4158V32.4931H14.5861V18.0821Z" fill="white"/>
</svg>
